HIERARCHY
ROOT hip
{
	OFFSET 0.000000 0.000000 0.000000 
	CHANNELS 6 Xposition Yposition Zposition Xrotation Zrotation Yrotation
	JOINT abdomen
	{
		OFFSET 0.000000 3.402643 0.000000 
		CHANNELS 3 Xrotation Zrotation Yrotation
		JOINT chest
		{
			OFFSET 0.000000 8.438565 -0.680529 
			CHANNELS 3 Xrotation Zrotation Yrotation
			JOINT neck
			{
				OFFSET 0.000000 10.207942 -0.272212 
				CHANNELS 3 Xrotation Zrotation Yrotation
				JOINT head
				{
					OFFSET 0.000000 3.130431 0.000000 
					CHANNELS 3 Xrotation Zrotation Yrotation
					End Site
					{
						OFFSET 0.000000 3.130435 0.000000 
					}
				}
			}
			JOINT lCollar
			{
				OFFSET 3.470700 6.669187 -0.816635 
				CHANNELS 3 Yrotation Zrotation Xrotation
				JOINT lShldr
				{
					OFFSET 3.198488 0.000000 0.000000 
					CHANNELS 3 Zrotation Yrotation Xrotation
					JOINT lForeArm
					{
						OFFSET 10.139888 0.000000 0.000000 
						CHANNELS 3 Yrotation Zrotation Xrotation
						JOINT lHand
						{
							OFFSET 8.370511 0.000000 0.000000 
							CHANNELS 3 Zrotation Yrotation Xrotation
							End Site
							{
								OFFSET 4.083176 0.000000 0.000000 
							}
						}
					}
				}
			}
			JOINT rCollar
			{
				OFFSET -3.470700 6.669187 -0.816635 
				CHANNELS 3 Yrotation Zrotation Xrotation
				JOINT rShldr
				{
					OFFSET -3.198488 0.000000 0.000000 
					CHANNELS 3 Zrotation Yrotation Xrotation
					JOINT rForeArm
					{
						OFFSET -10.139888 0.000000 0.000000 
						CHANNELS 3 Yrotation Zrotation Xrotation
						JOINT rHand
						{
							OFFSET -8.370511 0.000000 0.000000 
							CHANNELS 3 Zrotation Yrotation Xrotation
							End Site
							{
								OFFSET -4.083176 0.000000 0.000000 
							}
						}
					}
				}
			}
		}
	}
	JOINT lThigh
	{
		OFFSET 5.308129 -1.633274 1.361059 
		CHANNELS 3 Xrotation Zrotation Yrotation
		JOINT lShin
		{
			OFFSET -2.041588 -20.007561 0.000000 
			CHANNELS 3 Xrotation Zrotation Yrotation
			JOINT lFoot
			{
				OFFSET 0.000000 -19.190928 -1.224953 
				CHANNELS 3 Xrotation Yrotation Zrotation
				End Site
				{
					OFFSET 0.000000 -2.449906 4.627600 
				}
			}
		}
	}
	JOINT rThigh
	{
		OFFSET -5.308129 -1.633274 1.361059 
		CHANNELS 3 Xrotation Zrotation Yrotation
		JOINT rShin
		{
			OFFSET 2.041588 -20.007561 0.000000 
			CHANNELS 3 Xrotation Zrotation Yrotation
			JOINT rFoot
			{
				OFFSET 0.000000 -19.190928 -1.224953 
				CHANNELS 3 Xrotation Yrotation Zrotation
				End Site
				{
					OFFSET 0.000000 -2.449906 4.627600 
				}
			}
		}
	}
}
MOTION
Frames: 11
Frame Time: 0.016667
31.189697 38.446671 41.086739 16.221201 8.340990 -89.125000 -11.794900 3.116820 -0.896545 17.648800 4.096300 -0.705408 22.929800 16.164801 -10.303100 16.815399 10.560700 -5.914310 2.000000 -2.000000 0.000000 -67.289803 5.779500 127.003998 33.076500 -0.329409 0.074673 0.046050 -0.021268 -144.539001 -2.000000 2.000000 0.000000 44.299198 -3.900160 103.318001 -31.582399 0.331316 0.071605 -0.183255 0.167063 144.436005 -49.968929 24.665478 -7.038179 80.900223 -0.272751 4.497587 -22.185625 -6.952272 -1.154237 -18.080311 -7.558650 -3.881707 35.008461 -2.655087 -2.549016 -16.851534 0.347164 -1.078643 
31.034332 38.437794 41.324108 16.212000 7.881110 -88.438400 -11.842000 2.976830 -0.968713 17.579901 4.193570 -0.764164 22.953100 15.754900 -10.349300 16.662399 10.242700 -5.914930 2.000000 -2.000000 0.000000 -66.646202 5.731400 127.512001 33.525700 -0.328821 0.075569 0.046275 -0.022893 -145.125000 -2.000000 2.000000 0.000000 45.169701 -4.613380 103.903000 -32.217098 0.330515 0.072891 -0.186856 0.157977 143.126999 -49.774002 24.272465 -6.772295 81.037849 -0.294128 4.499664 -22.658930 -7.166947 -1.358191 -17.026464 -8.050140 -5.036255 34.460861 -2.744628 -2.506468 -16.783005 0.422989 -1.113749 
30.913343 38.411282 41.615173 16.999599 7.839920 -87.816803 -12.047500 2.986730 -1.002150 17.434099 3.929720 -0.750816 23.596001 15.641000 -10.201600 16.942900 10.068900 -5.844250 2.000000 -2.000000 0.000000 -66.090103 5.673220 127.794998 34.033600 -0.328147 0.076576 0.046275 -0.022893 -145.125000 -2.000000 2.000000 0.000000 45.801601 -5.247460 102.653000 -31.582399 0.331316 0.071605 -0.182612 0.166932 144.669998 -50.466133 24.500711 -7.092488 81.185631 -0.318064 4.508024 -22.579422 -8.012746 -1.725918 -16.182358 -7.476082 -5.285812 33.334621 -2.815691 -2.427467 -16.089993 -0.067412 -1.328301 
30.788200 38.392624 41.882095 17.196100 8.271050 -87.372597 -12.272400 2.962620 -0.851459 17.590200 4.066830 -0.659257 23.768101 15.621000 -10.036100 16.960699 10.020500 -5.763700 2.000000 -2.000000 0.000000 -65.622101 5.537130 128.225006 34.580399 -0.327412 0.077654 0.046350 -0.023407 -145.309998 -2.000000 2.000000 0.000000 46.553902 -6.302230 102.807999 -31.611700 0.331279 0.071665 -0.182933 0.166998 144.552994 -51.252777 24.456009 -6.607543 81.177307 -0.361349 4.511453 -22.811634 -8.375737 -1.917382 -15.742682 -7.498661 -5.458248 31.952517 -2.884204 -2.339774 -15.349370 -0.847973 -1.592950 
30.651709 38.387478 42.205513 17.766100 8.208250 -86.315300 -12.438200 2.914520 -0.790684 17.522499 3.822770 -0.592648 23.780300 15.225600 -10.056400 16.828699 9.711160 -5.729180 2.000000 -2.000000 0.000000 -64.754097 5.069340 128.869995 34.971100 -0.326880 0.078419 0.046383 -0.023624 -145.389008 -2.000000 2.000000 0.000000 47.834599 -7.699020 103.363998 -32.109699 0.330652 0.072674 -0.184946 0.167393 143.820007 -51.873024 24.182907 -6.746590 81.208817 -0.399079 4.535130 -22.994673 -7.936095 -1.825200 -14.486433 -7.023179 -5.444794 30.341446 -2.964264 -2.227095 -15.280854 -2.103381 -2.006938 
30.512524 38.326084 42.515793 19.563000 8.381230 -85.617897 -12.601600 3.492980 -1.097190 17.756399 4.116190 -0.669387 24.526199 14.934200 -9.001430 17.179600 9.801770 -5.235680 2.000000 -2.000000 0.000000 -65.251900 5.654960 128.654007 36.006199 -0.325446 0.080430 0.046291 -0.023002 -145.164001 -2.000000 2.000000 0.000000 47.475399 -7.914370 104.251999 -31.855801 0.330972 0.072160 -0.187206 0.158039 143.000000 -53.365185 25.478771 -7.350761 81.857285 -0.471674 4.553319 -23.615805 -7.848481 -1.856556 -13.462383 -5.208782 -5.327112 28.160326 -3.011209 -2.062783 -14.513365 -3.410661 -2.397475 
30.362551 38.264309 42.888081 20.228399 8.438470 -84.452698 -12.750100 3.604060 -1.052590 17.844900 4.009190 -0.599427 24.706499 14.583900 -8.698320 17.254000 9.684420 -5.055150 2.000000 -2.000000 0.000000 -64.609398 5.344200 129.806000 36.553101 -0.324674 0.081482 0.046108 -0.021702 -144.695007 -2.000000 2.000000 0.000000 47.963100 -9.095840 103.959000 -31.631201 0.331254 0.071705 -0.187421 0.158076 142.921997 -54.045670 25.304905 -7.280765 82.212456 -0.530069 4.583967 -23.278490 -8.264022 -2.035709 -12.353034 -4.631678 -5.032868 26.602362 -3.104243 -1.947363 -13.907681 -5.133640 -2.841683 
30.186068 38.247707 43.241943 20.105801 8.546180 -83.419197 -13.012200 3.498110 -1.314230 17.863001 4.428720 -0.744636 25.354500 13.995300 -7.814360 17.470100 9.637420 -4.627580 2.000000 -2.000000 0.000000 -64.336502 5.627840 130.089005 37.197701 -0.323751 0.082712 0.046021 -0.021051 -144.460999 -2.000000 2.000000 0.000000 48.101200 -9.848110 104.504997 -31.885099 0.330936 0.072220 -0.188958 0.168101 142.365005 -53.940193 24.610640 -6.134961 82.137306 -0.607550 4.601154 -23.274448 -7.220459 -1.654204 -11.449227 -4.951036 -4.995395 25.402050 -3.230625 -1.841578 -13.227438 -6.860719 -3.240061 
30.054855 38.281689 43.636368 21.153500 8.534090 -82.200600 -13.320900 3.838030 -1.326010 17.754999 4.506350 -0.688367 25.266300 13.114200 -7.493450 17.317301 9.301030 -4.409560 2.000000 -2.000000 0.000000 -63.937698 5.316670 130.949005 37.607800 -0.323157 0.083490 0.045784 -0.019179 -143.787003 -2.000000 2.000000 0.000000 47.831299 -10.198200 101.879997 -31.103901 0.331909 0.070630 -0.186829 0.157973 143.136993 -54.461399 24.676395 -6.537013 82.069069 -0.598889 4.613640 -23.672583 -7.487772 -1.868300 -10.165904 -3.933785 -4.634566 23.354233 -3.319079 -1.694574 -12.327060 -8.506720 -3.522705 
29.918367 38.303684 44.079094 21.086300 8.739030 -80.825699 -13.731400 3.783510 -1.233080 17.530001 4.437190 -0.624300 25.400900 12.670500 -6.888940 17.267900 9.302990 -4.114720 2.000000 -2.000000 0.000000 -63.334599 4.791480 132.307007 37.842201 -0.322814 0.083932 0.045774 -0.019098 -143.757996 -2.000000 2.000000 0.000000 48.270100 -11.848500 101.527000 -31.103901 0.331909 0.070630 -0.189066 0.168119 142.326004 -54.320736 23.499620 -6.391073 81.511238 -0.590459 4.614796 -24.485512 -8.425272 -2.500286 -9.444792 -4.236294 -4.671977 22.118538 -3.492339 -1.571286 -11.821250 -10.270458 -3.803012 
29.828941 38.407551 44.598991 20.014000 9.361180 -79.967796 -14.282700 3.353170 -0.982968 17.138100 4.445230 -0.528899 25.616800 12.057900 -6.165980 17.172400 9.144850 -3.747850 2.000000 -2.000000 0.000000 -62.526001 4.256290 133.488998 38.008202 -0.322571 0.084244 0.045755 -0.018935 -143.699005 -2.000000 2.000000 0.000000 48.757900 -13.674500 101.242996 -30.957399 0.332090 0.070331 -0.185887 0.167568 143.479004 -53.321152 21.583323 -5.227267 80.187874 -0.511774 4.603789 -25.764370 -9.411761 -3.303215 -9.483716 -5.611567 -4.580330 21.926300 -3.683382 -1.499633 -10.411338 -12.813230 -3.940648 
